<?xml version="1.0" encoding="utf-8"?>
<!-- Generator: Adobe Illustrator 28.0.0, SVG Export Plug-In . SVG Version: 6.00 Build 0)  -->
<svg version="1.1" id="Layer_1" xmlns="http://www.w3.org/2000/svg" xmlns:xlink="http://www.w3.org/1999/xlink" x="0px" y="0px"
	 viewBox="0 0 612 792" style="enable-background:new 0 0 612 792;" xml:space="preserve">
<style type="text/css">
	.st0{fill:#262262;stroke:#262262;stroke-miterlimit:10;}
	.st1{fill:none;stroke:#262262;stroke-miterlimit:10;}
</style>
<polygon class="st0" points="210.83,264.19 207.09,266.37 203.33,264.21 "/>
<line class="st1" x1="138.07" y1="266.64" x2="134.2" y2="264.42"/>
<polygon class="st0" points="314.16,263.88 310.59,265.95 307.02,263.9 "/>
<polygon class="st0" points="307.01,263.9 279.72,263.98 293.34,256.06 "/>
<polygon class="st0" points="327.84,255.93 314.16,263.88 307.02,263.9 307.01,263.9 293.34,256.06 310.59,246.03 "/>
<polygon class="st0" points="258.84,276.12 252.42,279.85 252.44,272.45 "/>
<polygon class="st0" points="276.09,286.01 274.39,287 274.38,287 252.4,287.07 252.42,279.85 258.84,276.12 "/>
<polygon class="st0" points="293.34,275.98 276.09,286.01 258.84,276.12 276.09,266.09 "/>
<polygon class="st0" points="310.59,265.95 293.34,275.98 276.09,266.09 279.71,263.98 279.72,263.98 307.01,263.9 307.02,263.9 "/>
<polygon class="st0" points="274.38,287 258.84,296.04 252.38,292.34 252.4,287.07 "/>
<polygon class="st0" points="252.42,279.85 252.4,287.07 243.25,287.1 243.24,287.1 241.59,286.15 "/>
<polygon class="st0" points="252.4,287.07 252.38,292.34 243.25,287.1 "/>
<polygon class="st0" points="245.27,264.09 241.59,266.23 237.89,264.11 "/>
<polygon class="st0" points="276.09,246.17 258.84,256.2 252.5,252.56 252.53,241.06 267.08,241.02 267.1,241.02 "/>
<polygon class="st0" points="258.84,256.2 252.48,259.9 252.5,252.56 "/>
<polygon class="st0" points="267.08,241.02 252.53,241.06 252.54,239.94 258.84,236.28 "/>
<line class="st1" x1="252.54" y1="239.94" x2="250.65" y2="241.07"/>
<polygon class="st0" points="205.5,287.21 189.84,296.31 174.15,287.3 "/>
<polygon class="st0" points="252.44,272.45 252.42,279.85 241.59,286.15 224.34,276.26 241.59,266.23 "/>
<polygon class="st0" points="189.84,276.39 172.58,286.42 155.33,276.53 172.58,266.5 "/>
<polygon class="st0" points="207.08,286.29 205.5,287.21 174.15,287.3 174.12,287.3 172.58,286.42 189.84,276.39 "/>
<polygon class="st0" points="172.58,266.5 155.33,276.53 138.07,266.64 141.93,264.39 134.2,264.42 120.82,256.74 138.07,246.72 
	155.33,256.61 168.77,264.31 "/>
<polygon class="st0" points="224.34,276.26 207.09,286.29 207.08,286.29 189.84,276.39 207.09,266.37 "/>
<polygon class="st0" points="237.89,264.11 210.83,264.19 224.34,256.34 "/>
<polygon class="st0" points="241.59,266.23 224.34,276.26 207.09,266.37 210.83,264.19 237.89,264.11 "/>
<polygon class="st0" points="252.5,252.56 252.48,259.9 245.27,264.09 237.89,264.11 224.34,256.34 241.59,246.31 "/>
<polygon class="st0" points="224.34,256.34 210.83,264.19 203.33,264.21 189.83,256.47 207.08,246.44 "/>
<polygon class="st0" points="207.08,246.44 189.83,256.47 172.58,246.58 181.7,241.27 197.98,241.22 198.01,241.22 "/>
<polygon class="st0" points="252.53,241.06 252.5,252.56 241.59,246.31 250.61,241.07 250.65,241.07 "/>
<polygon class="st0" points="197.98,241.22 181.7,241.27 189.83,236.55 "/>
</svg>
